<?xml version="1.0" encoding="UTF-8"?><svg id="Layer_2" xmlns="http://www.w3.org/2000/svg" viewBox="0 0 143.4 153"><defs><style>.cls-1{fill:none;stroke:#361163;stroke-linecap:round;stroke-linejoin:round;stroke-width:3px;}</style></defs><g id="Icon_area"><g><path class="cls-1" d="M17.3,46.3c7.7-13.5,20.1-24,35-29.3"/><path class="cls-1" d="M9.9,91.5c-.8-4.1-1.2-8.3-1.2-12.6s.2-6.6,.7-9.8"/><path class="cls-1" d="M36.2,132.3c-6.4-4.6-12-10.3-16.4-16.9"/><path class="cls-1" d="M74.4,144.5c-7.5,0-14.7-1.3-21.4-3.6"/><path class="cls-1" d="M120.1,126c-7.4,7.1-16.4,12.6-26.4,15.6"/><path class="cls-1" d="M133.7,50.6c4.1,8.5,6.4,18.1,6.4,28.2,0,9.1-1.8,17.8-5.2,25.6"/><path class="cls-1" d="M79,13.3c16.9,1.2,32,8.7,43,20.3"/><path class="cls-1" d="M77.4,109.3c-.1,4.3-.2,7.4,1.4,14.7,.8,3.7,1.7,7.1,2.7,10.3"/><path class="cls-1" d="M60,69.5c1.4,1.6,2.9,3.4,4.4,5.3,2.3,3,5.1,6.6,7.5,10.9"/><path class="cls-1" d="M26.4,99.5c4.6-3.7,10.1-8.8,15.4-15.6,3.3-4.3,6-8.6,8-12.5"/><path class="cls-1" d="M64.4,98.4c-12.4,1-24.8,2-37.2,3"/><path class="cls-1" d="M108.6,84.9c-2,1.9-4.3,3.9-7.2,5.6-4.8,3-9.5,4.7-13.7,5.7"/><path class="cls-1" d="M94.9,55.6c2.7,5,6.4,10.6,11.7,16.5"/><path class="cls-1" d="M77.5,22.2c2.6,2.5,5,5.5,7.2,9,1.4,2.3,2.4,4.4,3.2,6.3"/><path class="cls-1" d="M53.8,54.2c.3-5,1-10.8,2.4-17,.8-3.6,1.8-7,2.9-10"/><path class="cls-1" d="M23.8,62c3.5,.9,7.5,1.5,11.9,1.9,3.3,.3,6.3,.3,9.1,.2"/><path class="cls-1" d="M81.4,50.4c-2.6,1.1-5.3,2.2-8.1,3.4-4.1,1.8-8,3.6-11.8,5.4"/><path class="cls-1" d="M82.7,86.4c2.4-4.5,4.8-10.1,6.3-16.6,1.1-4.6,1.5-8.9,1.7-12.7"/><path class="cls-1" d="M71.4,108.3c-2.3,4.4-4.9,8.4-8.8,13.4-3.7,4.8-7.6,8.7-11.2,11.9"/><path class="cls-1" d="M116,117.8c-5.1-.3-11.1-1.4-17.4-3.9-6-2.4-10.7-5.5-14.4-8.6"/><path class="cls-1" d="M118.2,85.2c1.4,2,2.7,4.3,4,6.9,2.1,4.1,3.5,8.1,4.5,11.8"/><path class="cls-1" d="M124.5,50.3c-1,1.9-1.9,3.9-2.8,6-2,4.5-3.7,8.9-5.1,13.1"/><circle class="cls-1" cx="65.6" cy="14.9" r="13.4"/><circle class="cls-1" cx="128.9" cy="41.4" r="9.9"/><path class="cls-1" d="M141.9,116.4c0,7-5.7,12.7-12.7,12.7s-12.7-5.7-12.7-12.7,5.7-12.7,12.7-12.7,12.7,5.7,12.7,12.7Z"/><circle class="cls-1" cx="14.2" cy="103.4" r="12.7" transform="translate(-89.3 116.2) rotate(-89.2)"/><circle class="cls-1" cx="76" cy="96.9" r="11.6"/><circle class="cls-1" cx="113.6" cy="77.7" r="8.8"/><circle class="cls-1" cx="90.5" cy="46.9" r="9.6"/><circle class="cls-1" cx="84.4" cy="142.7" r="8.8"/><circle class="cls-1" cx="43.8" cy="138.4" r="8.8"/><circle class="cls-1" cx="53.7" cy="63.3" r="8.8"/><circle class="cls-1" cx="13.1" cy="57.6" r="11.6"/></g></g></svg>