<?xml version="1.0" encoding="UTF-8"?><svg id="Layer_2" xmlns="http://www.w3.org/2000/svg" viewBox="0 0 142.7 154.6"><defs><style>.cls-1{fill:#361163;}.cls-2{stroke-width:2px;}.cls-2,.cls-3{fill:none;stroke:#361163;stroke-linecap:round;stroke-linejoin:round;}.cls-3{stroke-width:3px;}</style></defs><g id="Icon_area"><g><path class="cls-3" d="M12.4,151.7c0-2.6,.4-5.1,1.1-7.6,.7-2.4,1.7-4.7,3.1-6.9,1.3-2.1,2.9-4.1,4.8-5.8s4-3.2,6.3-4.4c-2.6-1.9-4.7-4.4-6.1-7.3-1.5-2.9-2.2-6-2.2-9.3s.5-5.5,1.6-8c1.1-2.5,2.6-4.7,4.4-6.5,1.9-1.9,4-3.3,6.5-4.4,2.5-1.1,5.2-1.6,8-1.6s5.5,.5,8,1.6c2.5,1.1,4.7,2.6,6.5,4.4,1.9,1.9,3.3,4,4.4,6.5,1.1,2.5,1.6,5.2,1.6,8s-.7,6.3-2.2,9.3c-1.5,2.9-3.5,5.4-6.1,7.3,2.3,1.2,4.4,2.6,6.3,4.4,1.9,1.7,3.5,3.7,4.8,5.8s2.3,4.4,3.1,6.9c.7,2.4,1.1,5,1.1,7.6"/><path class="cls-3" d="M90.6,105.9c0-2.4,.3-4.7,1-7,.7-2.3,1.6-4.4,2.8-6.3,1.2-2,2.7-3.7,4.4-5.3s3.7-2.9,5.8-4c-2.4-1.8-4.3-4-5.7-6.7-1.4-2.7-2.1-5.6-2.1-8.6s.5-5.1,1.5-7.4c1-2.3,2.4-4.3,4.1-6,1.7-1.7,3.7-3.1,6-4.1,2.3-1,4.8-1.5,7.4-1.5s5.1,.5,7.4,1.5c2.3,1,4.3,2.4,6,4.1,1.7,1.7,3.1,3.7,4.1,6,1,2.3,1.5,4.8,1.5,7.4s-.7,5.8-2.1,8.6c-1.4,2.7-3.3,4.9-5.7,6.7,2.1,1.1,4.1,2.4,5.8,4s3.2,3.4,4.4,5.3,2.2,4.1,2.8,6.3c.7,2.3,1,4.6,1,7"/><path class="cls-3" d="M1.5,76.2c0-2.1,.3-4.1,.9-6.1,.6-2,1.4-3.8,2.5-5.5,1.1-1.7,2.4-3.3,3.9-4.7,1.5-1.4,3.2-2.6,5.1-3.5-2.1-1.6-3.7-3.5-4.9-5.9-1.2-2.4-1.8-4.8-1.8-7.5s.4-4.4,1.3-6.4c.9-2,2.1-3.8,3.6-5.3,1.5-1.5,3.2-2.7,5.3-3.6,2-.9,4.2-1.3,6.4-1.3s4.4,.4,6.4,1.3c2,.9,3.8,2.1,5.3,3.6,1.5,1.5,2.7,3.2,3.6,5.3,.9,2,1.3,4.2,1.3,6.4s-.6,5.1-1.8,7.5c-1.2,2.4-2.8,4.3-4.9,5.9,1.9,.9,3.6,2.1,5.1,3.5,1.5,1.4,2.8,2.9,3.9,4.7s1.9,3.6,2.5,5.5c.6,2,.9,4,.9,6.1"/><path class="cls-3" d="M54.4,41c0-1.7,.2-3.3,.7-4.9,.5-1.6,1.1-3,2-4.4s1.9-2.6,3.1-3.7,2.5-2,4-2.8c-1.7-1.2-3-2.8-3.9-4.7-.9-1.9-1.4-3.9-1.4-5.9s.3-3.5,1-5.1c.7-1.6,1.6-3,2.8-4.2,1.2-1.2,2.6-2.1,4.2-2.8,1.6-.7,3.3-1,5.1-1s3.5,.3,5.1,1c1.6,.7,3,1.6,4.2,2.8,1.2,1.2,2.1,2.6,2.8,4.2,.7,1.6,1,3.3,1,5.1s-.5,4.1-1.4,5.9c-.9,1.9-2.3,3.4-3.9,4.7,1.5,.8,2.8,1.7,4,2.8s2.2,2.3,3.1,3.7c.8,1.4,1.5,2.8,2,4.4,.5,1.6,.7,3.2,.7,4.9"/><line class="cls-2" x1="70.9" y1="145.3" x2="105.1" y2="112.3"/><g id="SC_Symbol___Charcoal_10"><g><circle class="cls-1" cx="114.9" cy="102.5" r="2.8" transform="translate(-23.7 169.6) rotate(-67.6)"/><path class="cls-1" d="M114.9,90.7c-6.5,0-11.8,5.3-11.8,11.8s5.3,11.8,11.8,11.8,11.8-5.3,11.8-11.8-5.3-11.8-11.8-11.8Zm11,11.8c0,6.1-4.9,11-11,11s-11-4.9-11-11,4.9-11,11-11,11,4.9,11,11Z"/><path class="cls-1" d="M105.9,102.5h0c0-4.8,3.8-8.8,9-8.8s8.9,3.9,8.9,8.7h0c0,4.8-3.8,8.8-9,8.8s-8.9-3.9-8.9-8.7Zm14,0h0c0-2.9-2.1-5.3-5.1-5.3s-5.1,2.4-5.1,5.2h0c0,2.9,2.1,5.3,5.1,5.3s5.1-2.4,5.1-5.2Z"/><path class="cls-1" d="M108.3,110.5c.2,1.1-.8,2.1-1.9,1.9s-1.3-.7-1.4-1.4c-.2-1.1,.8-2.1,1.9-1.9,.7,.1,1.3,.7,1.4,1.4Z"/><circle class="cls-1" cx="123.2" cy="94.2" r="1.7" transform="translate(-30.5 114.7) rotate(-45)"/></g></g><line class="cls-2" x1="86.8" y1="99" x2="32.8" y2="76.3"/><g id="SC_Symbol___Charcoal_10-2"><g><circle class="cls-1" cx="23.6" cy="70.3" r="2.3" transform="translate(-25.1 14.3) rotate(-22.4)"/><path class="cls-1" d="M23.6,60.7c-5.3,0-9.7,4.3-9.7,9.7s4.3,9.7,9.7,9.7,9.7-4.3,9.7-9.7-4.3-9.7-9.7-9.7Zm9.1,9.7c0,5-4.1,9.1-9.1,9.1-5,0-9.1-4.1-9.1-9.1s4.1-9.1,9.1-9.1c5,0,9.1,4.1,9.1,9.1Z"/><path class="cls-1" d="M16.4,70.3c0-4.3,3.2-7.4,7.2-7.4h0c3.9,0,7.1,3.1,7.1,7.3s-3.2,7.4-7.2,7.4h0c-3.9,0-7.1-3.1-7.1-7.3Zm2.8,0c0,2.5,2,4.2,4.3,4.2h0c2.4,0,4.3-1.7,4.3-4.1s-2-4.2-4.3-4.2h0c-2.4,0-4.3,1.7-4.3,4.1Z"/><path class="cls-1" d="M17,75.8c-.9-.1-1.7,.6-1.6,1.6s.6,1,1.1,1.1c.9,.1,1.7-.6,1.6-1.6s-.6-1-1.1-1.1Z"/><circle class="cls-1" cx="30.4" cy="63.5" r="1.4" transform="translate(-36 40.1) rotate(-45)"/></g></g><line class="cls-2" x1="46.6" y1="62.2" x2="67.5" y2="43.5"/><g id="SC_Symbol___Charcoal_10-3"><g><circle class="cls-1" cx="72" cy="36.3" r="1.9" transform="translate(11 89) rotate(-67.6)"/><path class="cls-1" d="M63.9,36.3c0,4.4,3.6,8.1,8.1,8.1s8.1-3.6,8.1-8.1-3.6-8.1-8.1-8.1-8.1,3.6-8.1,8.1Zm8.1-7.6c4.2,0,7.6,3.4,7.6,7.6s-3.4,7.6-7.6,7.6-7.6-3.4-7.6-7.6,3.4-7.6,7.6-7.6Z"/><path class="cls-1" d="M72,42.4h0c-3.3,0-6-2.6-6-6.2s2.7-6.1,5.9-6.1h0c3.3,0,6,2.6,6,6.2s-2.7,6.1-5.9,6.1Zm0-9.6h0c-2,0-3.6,1.5-3.6,3.5s1.6,3.5,3.6,3.5h0c2,0,3.6-1.5,3.6-3.5s-1.6-3.5-3.6-3.5Z"/><path class="cls-1" d="M77.5,40.8c.8-.1,1.4,.5,1.3,1.3s-.5,.9-.9,.9c-.8,.1-1.4-.5-1.3-1.3s.5-.9,.9-.9Z"/><circle class="cls-1" cx="66.3" cy="30.6" r="1.1" transform="translate(-2.2 55.8) rotate(-45)"/></g></g><g id="SC_Symbol___Charcoal_10-4"><g><circle class="cls-1" cx="39.8" cy="142.8" r="2.8" transform="translate(-107.4 125.1) rotate(-67.6)"/><path class="cls-1" d="M39.8,131.1c-6.5,0-11.8,5.3-11.8,11.8s5.3,11.8,11.8,11.8,11.8-5.3,11.8-11.8-5.3-11.8-11.8-11.8Zm11,11.8c0,6.1-4.9,11-11,11s-11-4.9-11-11,4.9-11,11-11,11,4.9,11,11Z"/><path class="cls-1" d="M30.9,142.9h0c0-4.8,3.8-8.8,9-8.8s8.9,3.9,8.9,8.7h0c0,4.8-3.8,8.8-9,8.8s-8.9-3.9-8.9-8.7Zm14,0h0c0-2.9-2.1-5.3-5.1-5.3s-5.1,2.4-5.1,5.2h0c0,2.9,2.1,5.3,5.1,5.3s5.1-2.4,5.1-5.2Z"/><path class="cls-1" d="M33.2,150.8c.2,1.1-.8,2.1-1.9,1.9s-1.3-.7-1.4-1.4c-.2-1.1,.8-2.1,1.9-1.9s1.3,.7,1.4,1.4Z"/><circle class="cls-1" cx="48.1" cy="134.5" r="1.7" transform="translate(-81 73.4) rotate(-45)"/></g></g></g></g></svg>