<?xml version="1.0" encoding="UTF-8"?><svg id="Layer_2" xmlns="http://www.w3.org/2000/svg" viewBox="0 0 160 160"><defs><style>.cls-1{fill:#361163;}.cls-2{stroke-width:3px;}.cls-2,.cls-3{fill:none;stroke:#361163;stroke-linecap:round;stroke-linejoin:round;}.cls-3{stroke-width:6px;}</style></defs><rect class="cls-2" x="43" y="11" width="74.1" height="140" rx="8.5" ry="8.5"/><line class="cls-3" x1="67" y1="12.9" x2="93.2" y2="12.9"/><line class="cls-2" x1="73.5" y1="145.3" x2="86.7" y2="145.3"/><path class="cls-2" d="m57.5,94.1c0-2.1.4-4.4.9-6.3.6-2.1,1.5-4,2.5-5.7,1.1-1.7,2.5-3.4,4-4.9,1.5-1.5,3.4-2.7,5.3-3.6-2.1-1.7-4-3.6-5.1-6.1-1.3-2.5-1.9-5.1-1.9-7.8s.4-4.5,1.3-6.6,2.1-4,3.6-5.5c1.5-1.5,3.4-2.8,5.5-3.6,2.1-.9,4.4-1.3,6.6-1.3s4.5.4,6.6,1.3c2.1.9,4,2.1,5.5,3.6,1.5,1.5,2.8,3.4,3.6,5.5.9,2.1,1.3,4.4,1.3,6.6s-.6,5.3-1.9,7.8c-1.3,2.5-3,4.5-5.1,6.1,1.9.9,3.6,2.3,5.3,3.6,1.5,1.5,2.8,3,4,4.9,1.1,1.9,1.9,3.6,2.5,5.7.6,2.1.9,4.2.9,6.3"/><g id="SC_Symbol_Charcoal_10"><g><circle class="cls-1" cx="80.3" cy="94.2" r="3.8"/><path class="cls-1" d="m80.3,77.4c-9.2,0-16.7,7.4-16.7,16.7s7.4,16.7,16.7,16.7,16.7-7.4,16.7-16.7-7.4-16.7-16.7-16.7Zm15.8,16.7c0,8.6-7,15.8-15.8,15.8s-15.8-7-15.8-15.8,7-15.8,15.8-15.8,15.8,7,15.8,15.8Z"/><path class="cls-1" d="m67.7,94.3h0c0-7,5.4-12.4,12.8-12.4s12.6,5.6,12.6,12.4h0c0,7-5.4,12.4-12.8,12.4s-12.6-5.6-12.6-12.4Zm20,0h0c0-4.3-2.9-7.7-7.2-7.7s-7.2,3.4-7.2,7.4h0c0,4.3,2.9,7.7,7.2,7.7s7.2-3.4,7.2-7.4Z"/><path class="cls-1" d="m70.8,105.6c.2,1.6-1.1,2.9-2.7,2.7-1.6-.2-1.8-.9-2-2-.2-1.6,1.1-2.9,2.7-2.7s1.8.9,2,2Z"/><circle class="cls-1" cx="92.2" cy="82.3" r="2.3"/></g></g></svg>